<?xml version="1.0" encoding="UTF-8" standalone="no"?>
<!DOCTYPE svg PUBLIC "-//W3C//DTD SVG 1.1//EN" "http://www.w3.org/Graphics/SVG/1.1/DTD/svg11.dtd">
<svg width="100%" height="100%" viewBox="0 0 100 100" version="1.1" xmlns="http://www.w3.org/2000/svg" xmlns:xlink="http://www.w3.org/1999/xlink" xml:space="preserve" xmlns:serif="http://www.serif.com/" style="fill-rule:evenodd;clip-rule:evenodd;stroke-linejoin:round;stroke-miterlimit:2;">
    <g transform="matrix(1.03576,0,0,1.8619,-0.463576,15.2381)">
        <path d="M87.34,15.985C87.34,14.503 85.177,13.299 82.513,13.299L14.93,13.299C12.265,13.299 10.102,14.503 10.102,15.985L10.102,21.355C10.102,22.838 12.265,24.041 14.93,24.041L82.513,24.041C85.177,24.041 87.34,22.838 87.34,21.355L87.34,15.985Z"/>
    </g>
    <g transform="matrix(1.03576,0,0,1.8619,-0.463576,-14.7619)">
        <path d="M87.34,15.985C87.34,14.503 85.177,13.299 82.513,13.299L14.93,13.299C12.265,13.299 10.102,14.503 10.102,15.985L10.102,21.355C10.102,22.838 12.265,24.041 14.93,24.041L82.513,24.041C85.177,24.041 87.34,22.838 87.34,21.355L87.34,15.985Z"/>
    </g>
    <g transform="matrix(1.03576,0,0,1.8619,-0.463576,45.2381)">
        <path d="M87.34,15.985C87.34,14.503 85.177,13.299 82.513,13.299L14.93,13.299C12.265,13.299 10.102,14.503 10.102,15.985L10.102,21.355C10.102,22.838 12.265,24.041 14.93,24.041L82.513,24.041C85.177,24.041 87.34,22.838 87.34,21.355L87.34,15.985Z"/>
    </g>
</svg>
